<?xml version="1.0" encoding="iso-8859-1"?>
<!-- Generator: Adobe Illustrator 18.1.1, SVG Export Plug-In . SVG Version: 6.00 Build 0)  -->
<svg version="1.1" id="Capa_1" xmlns="http://www.w3.org/2000/svg" xmlns:xlink="http://www.w3.org/1999/xlink" x="0px" y="0px"
	 viewBox="0 0 104.778 104.778" style="enable-background:new 0 0 104.778 104.778;" xml:space="preserve">
<g>
	<path style="fill:#010002;" d="M94.759,21.767c-0.673-6.22-5.891-11.098-12.275-11.098H50.492L25.83,0.734
		C24.624,0.251,23.433,0,22.291,0c-4.295,0-7.183,3.357-7.183,8.367v4.642c-2.806,2.008-4.703,5.15-5.089,8.757
		c-1.489,2.258-2.366,4.95-2.366,7.856v60.84c0,7.906,6.41,14.315,14.315,14.315h60.84c7.906,0,14.315-6.41,14.315-14.315v-60.84
		C97.125,26.716,96.248,24.025,94.759,21.767z M51.494,14.255v1.056v76.799h-1.006L25.83,82.17
		c-4.924-1.986-8.933-8.095-8.933-13.618v-52.28v-0.125V13.99v-2.022V8.371c0-3.998,2.115-6.582,5.393-6.582
		c0.913,0,1.879,0.208,2.87,0.601l20.543,8.281l4.438,1.789l1.353,0.544V14.255z M91.313,83.273c0,4.871-3.958,8.836-8.833,8.836
		h-29.2V15.31v-1.056h6.528v1.056v8.346l3.482-2.928l3.486,2.928V15.31v-1.056h15.708c2.162,0,4.109,0.812,5.647,2.097
		c1.929,1.628,3.185,4.026,3.185,6.739v60.182H91.313z M35.16,31.608l11.077,4.466v1.818L35.16,33.426V31.608z M35.16,38.544
		l11.077,4.459v1.825L35.16,40.362V38.544z M24.084,41.082l22.15,8.926v1.818L24.084,42.9V41.082z M24.084,48.007l22.15,8.926v1.825
		l-22.15-8.926V48.007z M24.084,55.011l22.15,8.926v1.818l-22.15-8.926V55.011z M25.981,37.195l0.576-1.768l3.335,1.342l0.598,2.244
		l0.97,0.39l0.973,0.39l-3.11-11.091l-1.063-0.429l-1.063-0.426l-3.11,8.579l0.952,0.372L25.981,37.195z M28.232,30.463v-0.007
		h0.004L28.232,30.463l1.167,4.416l-2.33-0.948L28.232,30.463z M59.117,57.061h24.791v1.818H59.117V57.061z M59.117,64.065h24.791
		v1.818H59.117V64.065z M61.254,50.082v-3.271c0.537-0.014,1.181-0.021,1.929-0.014c1.041,0,1.847-0.258,2.391-0.777
		c0.544-0.523,0.82-1.27,0.82-2.269c0-0.938-0.276-1.657-0.82-2.151c-0.544-0.49-1.342-0.73-2.391-0.73h-2.899h-0.963v9.201h0.97
		h0.963V50.082z M61.254,42.467h1.6c0.537,0,0.945,0.104,1.217,0.329c0.265,0.222,0.401,0.544,0.401,0.984
		c0,0.476-0.136,0.837-0.401,1.077c-0.272,0.24-0.673,0.361-1.217,0.361h-1.6V42.467z M71.668,50.082
		c1.321,0,2.319-0.404,3.006-1.235c0.68-0.82,1.02-2.015,1.02-3.6c0-1.428-0.329-2.516-0.984-3.264
		c-0.662-0.741-1.621-1.113-2.888-1.113h-2.978h-0.963v9.201h0.963h2.824V50.082z M69.804,42.467h1.782
		c0.73,0,1.274,0.236,1.639,0.712c0.361,0.483,0.537,1.195,0.537,2.154c0,1.059-0.193,1.85-0.58,2.376
		c-0.39,0.53-0.977,0.795-1.761,0.795H69.8L69.804,42.467L69.804,42.467z M78.114,50.082h-0.966v-9.205H83.7v0.812v0.823h-4.627
		v2.09h4.033v0.791v0.798h-4.033v3.894h-0.959V50.082z"/>
</g>
<g>
</g>
<g>
</g>
<g>
</g>
<g>
</g>
<g>
</g>
<g>
</g>
<g>
</g>
<g>
</g>
<g>
</g>
<g>
</g>
<g>
</g>
<g>
</g>
<g>
</g>
<g>
</g>
<g>
</g>
</svg>
