<?xml version="1.0" encoding="UTF-8" standalone="no"?>
<!-- Generator: Adobe Illustrator 18.1.1, SVG Export Plug-In . SVG Version: 6.00 Build 0)  -->

<svg
   version="1.1"
   id="Capa_1"
   x="0px"
   y="0px"
   viewBox="0 0 32.32309 36.850067"
   xml:space="preserve"
   sodipodi:docname="book.svg"
   inkscape:version="1.1.2 (0a00cf5339, 2022-02-04)"
   width="32.32309"
   height="36.850067"
   xmlns:inkscape="http://www.inkscape.org/namespaces/inkscape"
   xmlns:sodipodi="http://sodipodi.sourceforge.net/DTD/sodipodi-0.dtd"
   xmlns="http://www.w3.org/2000/svg"
   xmlns:svg="http://www.w3.org/2000/svg"><defs
   id="defs210" /><sodipodi:namedview
   id="namedview208"
   pagecolor="#ffffff"
   bordercolor="#666666"
   borderopacity="1.0"
   inkscape:pageshadow="2"
   inkscape:pageopacity="0.0"
   inkscape:pagecheckerboard="0"
   showgrid="false"
   inkscape:zoom="5.0201378"
   inkscape:cx="44.719888"
   inkscape:cy="52.389"
   inkscape:window-width="888"
   inkscape:window-height="1491"
   inkscape:window-x="1028"
   inkscape:window-y="64"
   inkscape:window-maximized="0"
   inkscape:current-layer="Capa_1" />
<g
   id="g175"
   transform="matrix(0.36127294,0,0,0.35169996,-2.7648218,0)">
	<path
   style="fill:#010002"
   d="M 94.759,21.767 C 94.086,15.547 88.868,10.669 82.484,10.669 H 50.492 L 25.83,0.734 C 24.624,0.251 23.433,0 22.291,0 17.996,0 15.108,3.357 15.108,8.367 v 4.642 c -2.806,2.008 -4.703,5.15 -5.089,8.757 -1.489,2.258 -2.366,4.95 -2.366,7.856 v 60.84 c 0,7.906 6.41,14.315 14.315,14.315 h 60.84 c 7.906,0 14.315,-6.41 14.315,-14.315 v -60.84 c 0.002,-2.906 -0.875,-5.597 -2.364,-7.855 z M 51.494,14.255 V 15.311 92.11 H 50.488 L 25.83,82.17 C 20.906,80.184 16.897,74.075 16.897,68.552 V 16.272 16.147 13.99 11.968 8.371 c 0,-3.998 2.115,-6.582 5.393,-6.582 0.913,0 1.879,0.208 2.87,0.601 l 20.543,8.281 4.438,1.789 1.353,0.544 z m 39.819,69.018 c 0,4.871 -3.958,8.836 -8.833,8.836 H 53.28 V 15.31 14.254 h 6.528 v 1.056 8.346 l 3.482,-2.928 3.486,2.928 V 15.31 14.254 h 15.708 c 2.162,0 4.109,0.812 5.647,2.097 1.929,1.628 3.185,4.026 3.185,6.739 V 83.272 H 91.313 Z M 35.16,31.608 46.237,36.074 v 1.818 L 35.16,33.426 Z m 0,6.936 11.077,4.459 v 1.825 L 35.16,40.362 Z m -11.076,2.538 22.15,8.926 v 1.818 L 24.084,42.9 Z m 0,6.925 22.15,8.926 v 1.825 l -22.15,-8.926 z m 0,7.004 22.15,8.926 v 1.818 l -22.15,-8.926 z m 1.897,-17.816 0.576,-1.768 3.335,1.342 0.598,2.244 0.97,0.39 0.973,0.39 -3.11,-11.091 -1.063,-0.429 -1.063,-0.426 -3.11,8.579 0.952,0.372 z m 2.251,-6.732 v -0.007 h 0.004 l -0.004,0.007 1.167,4.416 -2.33,-0.948 z m 30.885,26.598 h 24.791 v 1.818 H 59.117 Z m 0,7.004 h 24.791 v 1.818 H 59.117 Z m 2.137,-13.983 v -3.271 c 0.537,-0.014 1.181,-0.021 1.929,-0.014 1.041,0 1.847,-0.258 2.391,-0.777 0.544,-0.523 0.82,-1.27 0.82,-2.269 0,-0.938 -0.276,-1.657 -0.82,-2.151 -0.544,-0.49 -1.342,-0.73 -2.391,-0.73 h -2.899 -0.963 v 9.201 h 0.97 0.963 z m 0,-7.615 h 1.6 c 0.537,0 0.945,0.104 1.217,0.329 0.265,0.222 0.401,0.544 0.401,0.984 0,0.476 -0.136,0.837 -0.401,1.077 -0.272,0.24 -0.673,0.361 -1.217,0.361 h -1.6 z m 10.414,7.615 c 1.321,0 2.319,-0.404 3.006,-1.235 0.68,-0.82 1.02,-2.015 1.02,-3.6 0,-1.428 -0.329,-2.516 -0.984,-3.264 -0.662,-0.741 -1.621,-1.113 -2.888,-1.113 h -2.978 -0.963 v 9.201 h 0.963 2.824 z m -1.864,-7.615 h 1.782 c 0.73,0 1.274,0.236 1.639,0.712 0.361,0.483 0.537,1.195 0.537,2.154 0,1.059 -0.193,1.85 -0.58,2.376 -0.39,0.53 -0.977,0.795 -1.761,0.795 H 69.8 Z m 8.31,7.615 H 77.148 V 40.877 H 83.7 v 0.812 0.823 h -4.627 v 2.09 h 4.033 v 0.791 0.798 h -4.033 v 3.894 h -0.959 z"
   id="path173" />
</g>
<g
   id="g177"
   transform="translate(-7.653)">
</g>
<g
   id="g179"
   transform="translate(-7.653)">
</g>
<g
   id="g181"
   transform="translate(-7.653)">
</g>
<g
   id="g183"
   transform="translate(-7.653)">
</g>
<g
   id="g185"
   transform="translate(-7.653)">
</g>
<g
   id="g187"
   transform="translate(-7.653)">
</g>
<g
   id="g189"
   transform="translate(-7.653)">
</g>
<g
   id="g191"
   transform="translate(-7.653)">
</g>
<g
   id="g193"
   transform="translate(-7.653)">
</g>
<g
   id="g195"
   transform="translate(-7.653)">
</g>
<g
   id="g197"
   transform="translate(-7.653)">
</g>
<g
   id="g199"
   transform="translate(-7.653)">
</g>
<g
   id="g201"
   transform="translate(-7.653)">
</g>
<g
   id="g203"
   transform="translate(-7.653)">
</g>
<g
   id="g205"
   transform="translate(-7.653)">
</g>
</svg>
